HIERARCHY
ROOT root
{
	OFFSET	0	13.1	24.9
	CHANNELS 6  Xposition Yposition Zposition Xrotation Yrotation Zrotation
	JOINT spine_1
	{
		OFFSET	0	9.99999	0
		CHANNELS 3  Xrotation Yrotation Zrotation
		JOINT spine_2
		{
			OFFSET	0	112	-10
			CHANNELS 3  Xrotation Yrotation Zrotation
			JOINT spine_3
			{
				OFFSET	0	206.5	19.3
				CHANNELS 3  Xrotation Yrotation Zrotation
				JOINT spine_4
				{
					OFFSET	0	110.4	14.6
					CHANNELS 3  Xrotation Yrotation Zrotation
					JOINT neck_1
					{
						OFFSET	0	71.8	-50.3
						CHANNELS 3  Xrotation Yrotation Zrotation
						JOINT neck_2
						{
							OFFSET	0	86.2	-25.8
							CHANNELS 3  Xrotation Yrotation Zrotation
							JOINT head_ee
							{
								OFFSET	0	179.8	-8.7
								CHANNELS 3  Xrotation Yrotation Zrotation
								End Site
								{
									OFFSET	1	0	0
								}
							}
						}
					}
					JOINT left_clavicle
					{
						OFFSET	-43.2	22.4	-70.8
						CHANNELS 3  Xrotation Yrotation Zrotation
						JOINT left_shoulder
						{
							OFFSET	-93.9	-5.79999	48.7
							CHANNELS 3  Xrotation Yrotation Zrotation
							JOINT left_elbow
							{
								OFFSET	-291.4	-30.8	15.2
								CHANNELS 3  Xrotation Yrotation Zrotation
								JOINT left_lowarm_twist
								{
									OFFSET	-110.7	-3.89999	13.6
									CHANNELS 3  Xrotation Yrotation Zrotation
									JOINT left_hand
									{
										OFFSET	-110.7	-3.89999	13.6
										CHANNELS 3  Xrotation Yrotation Zrotation
										JOINT left_ee
										{
											OFFSET	-80.8	-5.10001	12.1
											CHANNELS 3  Xrotation Yrotation Zrotation
											End Site
											{
												OFFSET	1	0	0
											}
										}
									}
								}
							}
						}
					}
					JOINT right_clavicle
					{
						OFFSET	43.2	22.4	-70.8
						CHANNELS 3  Xrotation Yrotation Zrotation
						JOINT right_shoulder
						{
							OFFSET	93.9	-5.79999	48.7
							CHANNELS 3  Xrotation Yrotation Zrotation
							JOINT right_elbow
							{
								OFFSET	291.4	-30.8	15.2
								CHANNELS 3  Xrotation Yrotation Zrotation
								JOINT right_lowarm_twist
								{
									OFFSET	110.7	-3.89999	13.6
									CHANNELS 3  Xrotation Yrotation Zrotation
									JOINT right_hand
									{
										OFFSET	110.7	-3.89999	13.6
										CHANNELS 3  Xrotation Yrotation Zrotation
										JOINT right_ee
										{
											OFFSET	80.8	-5.10001	12.1
											CHANNELS 3  Xrotation Yrotation Zrotation
											End Site
											{
												OFFSET	1	0	0
											}
										}
									}
								}
							}
						}
					}
				}
			}
		}
	}
	JOINT left_hip
	{
		OFFSET	-82.8	-127.5	0.300001
		CHANNELS 3  Xrotation Yrotation Zrotation
		JOINT left_knee
		{
			OFFSET	-28.2	-396.7	2.2
			CHANNELS 3  Xrotation Yrotation Zrotation
			JOINT left_ankle
			{
				OFFSET	-11.7	-411.3	35.4
				CHANNELS 3  Xrotation Yrotation Zrotation
				JOINT left_toes
				{
					OFFSET	0	-60	-88.6
					CHANNELS 3  Xrotation Yrotation Zrotation
					JOINT left_foot_ee
					{
						OFFSET	-22.5	-16.5	-42.2
						CHANNELS 3  Xrotation Yrotation Zrotation
						End Site
						{
							OFFSET	1	0	0
						}
					}
				}
			}
		}
	}
	JOINT right_hip
	{
		OFFSET	82.8	-127.5	0.300001
		CHANNELS 3  Xrotation Yrotation Zrotation
		JOINT right_knee
		{
			OFFSET	28.2	-396.7	2.2
			CHANNELS 3  Xrotation Yrotation Zrotation
			JOINT right_ankle
			{
				OFFSET	11.7	-411.3	35.4
				CHANNELS 3  Xrotation Yrotation Zrotation
				JOINT right_toes
				{
					OFFSET	0	-60	-88.6
					CHANNELS 3  Xrotation Yrotation Zrotation
					JOINT right_foot_ee
					{
						OFFSET	22.5	-16.5	-42.2
						CHANNELS 3  Xrotation Yrotation Zrotation
						End Site
						{
							OFFSET	1	0	0
						}
					}
				}
			}
		}
	}
}
MOTION
Frames: 15
Frame Time: 0.02
2241.02 675.313 -524.704 154.898 -81.3171 163.21 -1.78969 0.00425868 -1.96181 -1.78756 0.129061 -1.95756 -1.79028 0.596527 -1.86895 -1.79503 0.293933 -1.93967 -20.7347 10.3397 6.33024 -21.0481 16.826 10.3706 -0.0 0.0 -0.0 4.77648 22.9049 9.31653 -30.4678 -15.3146 67.6306 0.182242 -5.15864 0.00820968 -57.2562 -4.94363 5.0076 3.06441 14.3577 25.9653 -0.0 0.0 -0.0 11.1174 26.7622 -21.2907 26.2427 6.11836 -57.5348 1.94659 43.9536 -0.785622 85.1326 4.4424 8.87223 2.82806 -30.2288 -27.9744 0.0 0.0 0.0 43.1933 32.55 -28.5024 -3.96534 0.142834 0.591675 8.32544 19.7946 -1.21574 8.11784 -0.0 -0.0 -0.0 0.0 -0.0 -22.0494 5.88041 -6.74951 -3.0074 -0.11209 -0.447876 37.5513 -6.30888 4.64019 -3.17093 0.0 0.0 0.0 0.0 0.0 
2261.58 676.425 -531.727 158.054 -82.039 166.628 -1.62165 -0.114937 -1.98173 -1.61946 0.011373 -1.98502 -1.61803 0.483067 -1.9254 -1.62316 0.172985 -1.97751 -21.6915 10.7922 7.52731 -22.0107 17.2458 11.8471 -0.0 0.0 -0.0 5.07707 23.4644 9.72085 -29.4665 -15.2861 66.5598 0.201085 -5.68871 0.00999082 -55.7309 -4.75711 4.94857 3.27791 12.7784 27.0142 -0.0 0.0 -0.0 10.975 27.5931 -20.8724 23.2383 7.8879 -56.3218 1.98744 44.5482 -0.814128 84.3256 4.34595 8.83456 2.8696 -29.9448 -28.1884 0.0 0.0 0.0 43.579 32.0611 -28.8253 -5.74025 0.193421 0.859359 9.0221 18.2372 -1.30768 7.65523 -0.0 -0.0 -0.0 0.0 -0.0 -22.389 5.83361 -6.27423 -3.63097 -0.132376 -0.541425 36.9954 -4.7236 4.58833 -1.59811 0.0 0.0 0.0 0.0 0.0 
2280.73 675.002 -538.932 159.443 -82.7361 168.085 -1.46521 -0.151687 -1.98159 -1.46303 -0.0253119 -1.98722 -1.46035 0.442605 -1.93749 -1.46556 0.131123 -1.98305 -21.1367 11.3198 7.43512 -21.4977 18.2332 11.9039 -0.0 0.0 -0.0 5.16021 22.4946 9.87667 -28.6329 -15.0308 67.0512 0.201002 -5.68637 0.00998245 -54.8164 -4.64604 4.91079 3.45971 11.944 28.0773 -0.0 0.0 -0.0 10.9707 28.2505 -20.7831 20.7794 9.27854 -55.0223 1.92943 43.7002 -0.773737 83.1573 4.20728 8.77764 2.72366 -30.0825 -27.3056 0.0 0.0 0.0 43.1118 32.2657 -28.3738 -6.78602 0.219334 1.01775 10.9463 17.112 -1.57132 8.00709 -0.0 -0.0 -0.0 0.0 -0.0 -22.4146 6.12836 -5.61906 -4.1891 -0.149668 -0.625336 36.0708 -4.76606 4.50154 -0.796434 0.0 0.0 0.0 0.0 0.0 
2298.94 678.938 -546.97 159.794 -82.8323 168.879 -1.28408 -0.23714 -2.15749 -1.2815 -0.0994053 -2.1682 -1.27561 0.406249 -2.13214 -1.28195 0.0645024 -2.16952 -22.324 11.6603 8.97186 -22.6623 18.3414 13.7001 -0.0 0.0 -0.0 5.54856 22.1657 10.4501 -27.5473 -15.2898 66.9453 0.224046 -6.33325 0.0123952 -54.1428 -4.56463 4.88184 3.51854 11.2234 28.2852 -0.0 0.0 -0.0 10.8833 27.931 -20.6256 18.2286 9.87944 -54.3935 1.94442 43.9217 -0.784116 83.2366 4.21665 8.78159 2.95852 -30.0518 -28.761 0.0 0.0 0.0 42.3343 32.5087 -27.9871 -8.08857 0.247558 1.21564 12.0318 15.8477 -1.71491 7.91541 -0.0 -0.0 -0.0 0.0 -0.0 -22.5021 5.50168 -5.72654 -4.88241 -0.170008 -0.729792 36.1307 -6.29764 4.50741 -0.336735 0.0 0.0 0.0 0.0 0.0 
2318.66 688.319 -559.886 156.777 -82.9215 165.838 -1.46728 -0.316905 -2.16954 -1.46468 -0.178243 -2.1853 -1.45549 0.340282 -2.166 -1.46203 -0.0059822 -2.19255 -22.6612 11.677 9.76518 -22.9496 18.0654 14.4945 -0.0 0.0 -0.0 6.15566 22.337 11.3198 -26.1 -15.5799 66.4273 0.315873 -8.89339 0.0245641 -53.283 -4.46119 4.84349 3.42612 9.7925 27.1512 -0.0 0.0 -0.0 10.7011 27.1193 -20.3118 15.2253 10.384 -53.8009 1.98754 44.5495 -0.814195 82.3708 4.11457 8.73772 3.02415 -29.9227 -29.1551 0.0 0.0 0.0 41.0169 33.0941 -27.4762 -9.24636 0.268861 1.39202 12.5646 13.8527 -1.77972 8.03631 -0.0 -0.0 -0.0 0.0 -0.0 -22.3477 5.39388 -5.69341 -6.05285 -0.20147 -0.906657 33.8833 -8.12219 4.29253 0.479261 -0.0 -0.0 0.0 0.0 0.0 
2333.96 691.721 -568.458 158.478 -83.6418 168.056 -1.31217 -0.556339 -2.47865 -1.30884 -0.39754 -2.509 -1.28816 0.195655 -2.53274 -1.29705 -0.206668 -2.53187 -22.8147 12.0801 10.2512 -23.1191 18.6513 15.1656 -0.0 0.0 -0.0 6.6546 21.7407 12.0942 -24.3956 -15.9389 66.3108 0.336684 -9.46902 0.0278847 -52.9148 -4.41707 4.8266 3.54189 10.0623 28.0887 -0.0 0.0 -0.0 10.5029 26.8733 -19.8946 12.7333 10.4513 -53.4545 1.96131 44.1692 -0.795854 81.6568 4.03089 8.70039 3.05027 -30.0149 -29.3335 0.0 0.0 0.0 41.2344 33.1172 -27.0162 -9.8569 0.278659 1.48519 13.2425 13.73 -1.87068 7.83411 -0.0 -0.0 -0.0 0.0 -0.0 -22.1685 5.65206 -5.56714 -5.67917 -0.191818 -0.850122 35.5472 -6.31014 4.45168 0.436806 -0.0 -0.0 0.0 0.0 0.0 
2354.81 699.841 -577.093 155.187 -84.0948 165.284 -1.37423 -0.536059 -2.6098 -1.37052 -0.368964 -2.63859 -1.3499 0.25644 -2.65189 -1.35968 -0.165441 -2.65911 -23.1693 11.5232 10.1152 -23.4325 17.6972 14.8418 -0.0 0.0 -0.0 7.03767 21.7253 12.6627 -23.338 -16.4304 65.6197 0.397709 -11.1455 0.0388049 -52.8255 -4.4064 4.82246 3.40781 10.1963 27.1485 -0.0 0.0 -0.0 9.84323 23.7449 -18.7395 10.3882 10.1227 -54.313 1.97955 44.4342 -0.808597 80.9915 3.95334 8.66467 3.22632 -30.3075 -30.4929 0.0 0.0 0.0 39.7647 33.5775 -26.8821 -10.8544 0.292528 1.63763 14.886 12.2471 -2.08469 8.29047 -0.0 -0.0 -0.0 0.0 -0.0 -20.7431 5.67845 -5.79324 -6.82637 -0.220276 -1.02387 37.7667 -5.9983 4.65956 0.915123 -0.0 -0.0 0.0 0.0 0.0 
2379.25 707.479 -585.13 153.448 -84.1345 163.697 -1.38656 -0.631122 -2.82239 -1.38225 -0.450322 -2.85679 -1.35545 0.228426 -2.88301 -1.36698 -0.229564 -2.88292 -24.8779 10.565 10.1414 -25.0967 16.1195 14.731 -0.0 0.0 -0.0 7.13628 22.1828 12.766 -21.7746 -16.9188 64.5906 0.517729 -14.3847 0.0653345 -53.7074 -4.51217 4.86261 3.03377 11.0433 24.7292 -0.0 0.0 -0.0 9.38356 21.1016 -17.9427 7.27297 11.4184 -55.0088 1.96535 44.2281 -0.798673 79.6694 3.80048 8.59102 3.04504 -30.1317 -29.3172 0.0 0.0 0.0 36.7677 34.6052 -26.6696 -10.4151 0.286746 1.57046 15.6473 7.06379 -2.17727 7.73212 -0.0 -0.0 -0.0 0.0 -0.0 -19.7174 6.0544 -5.53349 -9.32094 -0.270111 -1.4034 40.491 -5.56749 4.90035 1.1086 -0.0 -0.0 0.0 0.0 0.0 
2403.07 713.03 -592.944 146.133 -83.1813 156.325 -1.49502 -0.714905 -2.8235 -1.49074 -0.533866 -2.86322 -1.45945 0.153865 -2.90847 -1.47112 -0.307207 -2.8963 -24.6716 10.471 9.96884 -24.8847 15.9768 14.4832 -0.0 0.0 -0.0 7.3408 22.5942 13.0256 -20.6662 -17.1521 64.0454 0.596479 -16.4614 0.086281 -53.8186 -4.52556 4.86756 2.6351 11.9465 22.2272 -0.0 0.0 -0.0 8.81333 18.6377 -16.8597 4.45125 12.0753 -55.811 2.05756 45.541 -0.863748 77.6249 3.56754 8.47025 2.86365 -30.2691 -28.2015 0.0 0.0 0.0 32.9925 35.7159 -26.0642 -9.79286 0.277678 1.47542 17.0754 4.2086 -2.36538 7.76759 -0.0 -0.0 -0.0 0.0 -0.0 -18.2403 7.5174 -5.16142 -14.8975 -0.32151 -2.25717 40.658 -3.90985 4.91497 2.12678 -0.0 -0.0 0.0 0.0 0.0 
2424.1 715.146 -596.289 137.779 -82.4109 148.381 -1.82621 -0.672413 -2.93628 -1.82155 -0.484292 -2.97307 -1.7911 0.245348 -3.00223 -1.8036 -0.231657 -3.00331 -25.0659 10.0824 9.95098 -25.2489 15.2968 14.3413 -0.0 0.0 -0.0 7.50763 22.7003 13.2588 -19.2003 -18.1719 63.3636 0.693787 -18.967 0.115896 -54.0485 -4.55325 4.87771 2.46023 12.5024 21.2045 -0.0 0.0 -0.0 8.29819 18.3513 -15.7443 2.13846 12.6111 -56.3376 1.94702 43.9599 -0.785917 76.3323 3.42254 8.38965 2.69989 -30.0357 -27.1515 0.0 0.0 0.0 29.067 35.8164 -25.4544 -8.48441 0.255242 1.2759 17.5076 0.809001 -2.43281 7.36617 -0.0 -0.0 -0.0 0.0 -0.0 -17.8917 7.83896 -6.22442 -19.7756 -0.298241 -3.00503 40.9442 -5.89549 4.93935 3.68961 -0.0 -0.0 0.0 0.0 0.0 
2444.45 712.13 -602.387 135.594 -81.0135 146.593 -1.96493 -0.671715 -3.01465 -1.96 -0.478615 -3.05124 -1.92874 0.27709 -3.07607 -1.94188 -0.211958 -3.08124 -24.9297 10.0754 10.1501 -25.0893 15.179 14.4911 -0.0 0.0 -0.0 7.74092 22.5823 13.6147 -17.902 -18.6606 62.4823 0.759579 -20.6199 0.138177 -53.7473 -4.51698 4.86439 1.88277 14.1264 17.8542 -0.0 0.0 -0.0 7.39378 17.0086 -13.8573 0.27466 13.8422 -57.4233 1.97122 44.3134 -0.802768 74.9627 3.27093 8.3007 2.42252 -29.9534 -25.4456 0.0 0.0 0.0 26.1261 36.4104 -25.3037 -7.60644 0.237635 1.14232 20.5848 -3.30296 -2.84932 6.22771 -0.0 -0.0 -0.0 0.0 -0.0 -16.7332 8.5995 -6.33787 -28.4765 -0.099398 -4.32418 39.5794 -6.56027 4.82295 6.86827 -0.0 -0.0 0.0 0.0 0.0 
2458.1 713.152 -607.802 135.493 -79.7477 146.686 -2.09441 -0.699184 -2.97151 -2.08964 -0.508771 -3.00993 -2.05705 0.24457 -3.04278 -2.06989 -0.238821 -3.04324 -25.1176 9.762 9.71212 -25.2842 14.7848 13.9652 -0.0 0.0 -0.0 8.21984 22.7214 14.3049 -16.3638 -19.1257 61.6359 0.825451 -22.2397 0.162247 -53.5868 -4.49767 4.85722 1.54011 14.4383 15.7132 -0.0 0.0 -0.0 6.82058 15.4357 -12.7179 -1.15722 14.4953 -58.1974 1.97035 44.3009 -0.802165 73.7686 3.14051 8.22023 2.20654 -29.9021 -24.1392 0.0 0.0 0.0 22.5074 37.128 -24.6208 -6.04271 0.201213 0.905122 21.6771 -6.95021 -3.02493 4.90023 -0.0 -0.0 -0.0 0.0 -0.0 -13.2246 10.1761 -6.72865 -36.6471 0.267352 -5.52317 38.3608 -7.61714 4.71732 8.70569 -0.0 -0.0 0.0 0.0 0.0 
2471.51 714.994 -612.531 140.365 -78.1036 151.815 -2.09707 -0.770918 -3.04777 -2.09209 -0.575513 -3.0906 -2.05477 0.199433 -3.13735 -2.06838 -0.298306 -3.1295 -25.3142 9.90893 9.71197 -25.506 15.0986 14.0811 -0.0 0.0 -0.0 9.12095 22.4299 15.6933 -14.7434 -19.6673 59.4754 0.876191 -23.4625 0.181952 -53.4499 -4.48122 4.85106 1.0898 15.2562 13.0954 -0.0 0.0 -0.0 6.41844 14.7778 -11.8945 -3.2567 15.6696 -58.4373 1.93654 43.8054 -0.778652 72.853 3.04166 8.1567 2.0543 -29.8523 -23.2249 0.0 0.0 0.0 20.7051 38.2093 -24.7001 -5.26099 0.18058 0.78693 21.9613 -9.2304 -3.09279 4.09108 -0.0 -0.0 -0.0 0.0 -0.0 -10.5347 10.8114 -6.98288 -41.2492 0.548148 -6.17226 36.8216 -8.49501 4.57871 9.9835 -0.0 -0.0 0.0 0.0 0.0 
2485.17 716.711 -618.315 141.666 -76.7622 153.116 -2.18493 -0.75878 -3.02877 -2.18001 -0.564607 -3.07086 -2.14343 0.210007 -3.11522 -2.15686 -0.284375 -3.10932 -26.2719 9.97038 11.0792 -26.3898 14.8261 15.5465 -0.0 0.0 -0.0 9.32678 20.7503 16.2693 -13.0055 -20.8453 59.4496 0.928224 -24.6933 0.203182 -53.2926 -4.46235 4.84393 0.94909 15.5526 12.3052 -0.0 0.0 -0.0 5.92453 13.6405 -10.9105 -4.61862 16.1423 -58.8735 1.91147 43.4328 -0.761359 72.0122 2.95179 8.09697 1.87346 -29.4952 -22.0812 0.0 0.0 0.0 18.3167 38.5031 -24.231 -5.6913 0.192137 0.851956 23.6579 -11.9421 -3.35024 3.88121 -0.0 -0.0 -0.0 0.0 -0.0 -8.29077 11.9342 -6.66316 -46.2162 0.908828 -6.84558 36.064 -7.97935 4.50495 10.8522 -0.0 -0.0 0.0 0.0 0.0 
2498.59 725.003 -623.717 145.387 -75.5346 156.928 -2.21664 -0.681764 -3.1776 -2.21115 -0.47829 -3.21449 -2.17757 0.331173 -3.23294 -2.19211 -0.183288 -3.24467 -26.1073 10.0399 10.1305 -26.3117 15.305 14.6898 -0.0 0.0 -0.0 9.69567 20.1132 16.9523 -11.8724 -21.4478 58.7019 0.961561 -25.4694 0.217314 -53.3722 -4.47189 4.84754 0.485895 16.5062 9.74036 -0.0 0.0 -0.0 5.65926 14.4128 -10.2933 -5.99706 16.3567 -59.9522 1.60652 38.5107 -0.561225 71.015 2.84636 8.02445 1.78363 -29.181 -21.4818 0.0 0.0 0.0 16.9584 39.0597 -23.9307 -5.51321 0.187413 0.825034 21.3302 -13.4983 -3.08911 3.05742 -0.0 -0.0 -0.0 0.0 -0.0 -3.29074 12.0966 -7.29471 -48.9731 1.13392 -7.20529 34.0977 -9.81828 4.32118 10.7836 -0.0 -0.0 0.0 0.0 0.0 
